<svg version="1" xmlns="http://www.w3.org/2000/svg" width="1280" height="1280" viewBox="0 0 960.000000 960.000000"><path d="M0 480v480h960V0H0v480zm328.4-208.5c1.8.9 9.1 7.3 16.2 14.3 10.3 10.1 14 14.5 18.2 21.6 8.9 15.3 15.6 34.8 20.4 59.1 1.8 9.4 2.2 15.6 2.5 42.7.4 23.1.8 31.8 1.6 31.9.7 0 12.9.6 27.2 1.3 19.2 1 26.3 1.1 27.1.2 1.4-1.3 32.3-61.2 38.6-74.6 7.8-16.7 25.9-50.4 28.6-53.3 2.4-2.6 3.2-2.8 7.9-2.5 7.3.6 20.9 7.5 27.1 13.7 7.9 7.9 13.5 20.5 16.7 37.5 3.1 16.7 5.6 41.8 6.2 62.3.6 20.3.7 21.2 2.7 21.8 2.1.7 2.1.8-.1 1.2-1.5.3-2.3 1.2-2.3 2.4 0 3.7 4.6 2.2 11.2-3.8 13.7-12.2 46.3-35 77.3-54 37.1-22.7 90.1-51.5 116.9-63.6 9-4 9.3-4 23-4.5 18-.6 21 .2 23.9 6.6 4.8 10.6 1.4 32.7-9.8 63.7-5.6 15.5-13.4 34.3-18.1 43.7l-3.4 6.7 52.5.3c41.2.2 52.7.6 53.7 1.6s-5.6 1.2-36.2 1.1c-37.9-.3-71.7.7-72.5 2.1-.5.7 32.3 1.5 109.5 2.6 23.4.3 43.3.8 44.3 1 3.7 1.1 1.4 2.4-4.5 2.6l-6.3.1 6 .6c6.6.7-50.7 3.4-106 5.1-18.1.6-37.1 1.3-42.2 1.6l-9.1.6-12.8 19.6c-26.6 40.9-96.6 152.8-103.4 165.3-4.8 8.8-9.1 14.1-9.8 12.1-.5-1.7 4.3-10.7 20.2-37.6 14.9-25.1 19-32.5 18.3-33.2-.5-.5-2.8 3.2-26.5 42.6-16.3 27.2-22.3 36.8-30.4 48.4-.4.6-.9.8-1.3.5-.3-.3 6.1-12.7 14.1-27.5 14.1-26 19.8-37 17.2-33-.7 1-5.5 8.3-10.7 16.2-5.2 7.9-9.9 14.4-10.5 14.4-.6 0-1.8 1.5-2.6 3.2-1.5 3.3-4 4.9-4 2.7 0-.7 1.1-2.7 2.4-4.4 1.4-1.8 4.2-7.9 6.4-13.6 2.1-5.7 5.1-13.5 6.6-17.4l2.7-7-3.1 3c-1.6 1.6-3 2.5-3 2.1 0-.9 3.6-6 7.3-10.4 1.5-1.8 2.7-3.8 2.7-4.4 0-2.4-4.4 3.1-12.3 15.4-4.5 7-8.7 12.8-9.4 12.8-1.3 0-2.8-7.4-1.7-9.1.4-.7-1.8.7-4.8 3-4 3-6 5.4-7.2 8.5-.9 2.3-3 5.6-4.7 7.2l-3 2.9 2.7-6c1.5-3.3 3.1-6.5 3.6-7.2.5-.7.7-1.7.4-2.2-1.1-1.7 1.8-7.1 10.8-20.5 4.7-7.1 8.9-13.3 9.2-13.8 1.6-2.6-4.1 1.8-9.3 7.2-3.2 3.3-6.3 6-7 6-1.8 0-1.6-.7.9-4.3 1.9-2.8 1.9-3 .2-1.6-4.3 3.6-4.7 3-.7-1.3 2.8-3.1 4.4-5.9 4.8-8.5 2-12.3 5.4-21.1 17.5-45.4 8.6-17.1 26.2-49.5 37.9-69.8 3.9-6.8 7.1-12.5 7.1-12.7 0-.2-1.8-.4-4.1-.4-3.5 0-4.9.7-9.8 5.2-3.2 2.9-13.2 12.1-22.2 20.3-30.8 28.2-60.8 52.5-82.4 66.8-17.5 11.5-17 11.6-41.2-11.9-12.9-12.6-20.8-23.4-23.9-32.7-1.5-4.4-1.8-8.3-1.6-24.7.2-17.1-.4-23.8-2.1-22-.3.3-11.2 19.8-24.2 43.5-25.5 46-34.2 61.6-39.6 70.7-1.9 3.1-5.6 9.6-8.4 14.4-6.8 11.8-12 17.6-15.4 17.2-4.2-.5-4-6 .7-15 .2-.4-.9-.5-2.5-.2-4.3.9-10.9-1.3-13.2-4.3-2.6-3.2-2.8-11-.5-15.4.8-1.7 1.4-3.2 1.2-3.3-.2-.1-1.6-.6-3.3-1.2-6.5-2.1-7.1-10.6-2.1-28.1 5.4-18.6 15.3-45.7 21.7-59.2l5.9-12.3-18.3.4c-18.4.5-21.7 1-21.7 3.3 0 1.3 6.4 2.5 14 2.5 7.7 0 17 1.2 16.4 2.1-.3.5-7.2.9-15.4.9h-14.8l-.6 6.2c-.3 3.5-1.2 21.1-2.1 39.3-2.9 59.6-3.7 66-9 72.3-4.4 5.3-10.4 5-19.1-.8-3.6-2.4-4.4-2.6-6.5-1.4-1.3.7-4.1 1.5-6 1.9-3.2.6-3.9.3-5.7-2.2-2.5-3.5-5.5-13.4-8.9-28.8-2.5-11.4-2.6-13.8-3-48.8l-.5-36.7h-77.7l-10.7 12.2c-27.9 31.9-32.5 36.6-43 43.8-5.6 3.9-11 8-12 9.1-1.8 2-1.8 2 1 .9 1.5-.5 6-2.9 9.9-5.2 8.2-4.6 9.4-5.3 8.7-4.6-.3.2-6.5 6-13.8 12.7-7.3 6.8-19.2 18.9-26.5 27-16.7 18.6-38.8 40.6-59.2 59.1C77 661.4 74 663.8 74 661.1c0-.5 5.9-8.8 13-18.5 14.2-19.3 18.5-25.6 17.2-25.6-.5 0-7.9 6.5-16.6 14.5-8.7 8-16.3 14.5-16.8 14.5-1.1 0 0-1.6 14.2-20 5.3-6.9 10-13.1 10.4-13.8 1.8-3.1-2.3-.4-15.1 9.8-13.8 11.1-17.3 12.8-18.1 8.7-.2-1 1.2-5.1 3.1-9.1 2.8-5.9 3.4-8.2 3-11.7-.4-3.7 0-5.1 2.6-9 1.7-2.5 4.8-6.3 6.8-8.4 2.1-2.2 4.6-5.7 5.6-8s4.9-7 9.5-11.2c4.2-4 7.3-7.2 6.8-7.3-.5 0-8.1 7.1-17 15.8-22.8 22.3-32.6 31.3-33.7 30.6-1.8-1.1 4.9-10.2 20.1-27.4 8.6-9.6 15.3-17.8 16.5-20 .4-.8-5.3 4.5-12.7 11.8-13.1 12.9-18.4 16.7-13.7 9.9 6.8-9.6 18.1-22.4 42.9-48.2 12.1-12.6 56-65.8 56-67.8 0-.2-11.8-.7-26.2-1.1-43.7-1.1-86.4-3.6-90.8-5.3-1.2-.4-1.1-.7.5-1.3 1.4-.6-.1-.9-4.6-.9-8.2-.1-12.9-1.6-12.9-4.2 0-1.3 1.1-2.1 4-2.9 2.7-.7 3.8-1.5 3.4-2.5-.3-.7.4-1.8 1.5-2.4 3.8-2.1 31.5-3.1 87.9-3.1 56.8 0 61.4-.3 52.3-3.4-5.9-2-3.9-3.5 6.9-5.1 3-.4 4.7-2 12-11.2 4.6-5.8 11.4-13.8 15-17.7 3.6-3.9 15.7-18.8 27-33 23.1-29.2 78.9-99 81.7-102.2 4-4.5 7.5-5.3 12.7-2.9zm374.6 321c-4 6.3-7.4 11.5-7.6 11.5-.2 0 .8-2.6 2.2-5.8 1.4-3.1 3.7-8.4 5.1-11.7 1.4-3.3 3.5-7.1 4.6-8.3l2.2-2.4.3 2.6c.2 1.8-1.8 6-6.8 14.1zM59.6 620.7c-2 8.2-26.6 33.5-26.6 27.4 0-1.6 11.4-16.3 18.1-23.4 7-7.3 9.6-8.5 8.5-4zm27.4 0c-2.6 3.4-19.1 20.3-19.7 20.3-.3 0-2.6 1.7-5.1 3.7-9.1 7.4 5.4-9.3 16.8-19.3 8.8-7.7 11.7-9.4 8-4.7zm556 11.6c0 .8-1.1 2.4-2.5 3.7-2.2 2.1-2.5 2.2-2.5.5 0-1.9 2.7-5.5 4.2-5.5.4 0 .8.6.8 1.3zM629 646c0 1.7-12.7 23.7-15.3 26.5-1.9 2.1 10-24.5 12-26.8 2.1-2.3 3.3-2.2 3.3.3z"/><path d="M318.7 395.6c-8.5 8.9-16.1 17.9-26.1 30.7-8 10.3-7.9 10.7 3 10.7 3.9 0 11.9.3 17.7.7l10.7.6v-22.4c0-19 .2-22.8 1.6-24.7 3.6-5.2 0-2.9-6.9 4.4zm66.3 73.5c0 1.4 2.7 1.7 20.7 2.2 20.5.7 22.2.5 22.3-2.5 0-.4-9.7-.9-21.5-1-19.1-.3-21.5-.1-21.5 1.3zm-261.4 58.7c-4.3 2.8-7.1 6-11.9 13.2-10.7 15.9-10.8 16.1-5.8 11.5 3.7-3.5 20.1-21.8 24-26.8 2.2-2.8-.3-2-6.3 2.1zm40.1 14.7c-1.3.9-1.7 2-1.2 3.4.8 2.7 2.6 2.7 5.3-.2 1.7-1.8 1.9-2.6 1-3.5-1.5-1.5-2.9-1.5-5.1.3zm-14.7 9.9c0 .7.6 1.9 1.4 2.5 1.9 1.6 3.2-.5 1.6-2.4s-3-1.9-3-.1zm-35.7 13.4c-16.8 18.1-27.6 30.2-27 30.2.2 0 10-9.9 21.7-22s20.5-22 19.7-22c-.9 0-7.3 6.2-14.4 13.8zm31.9-3.5c-2.3 2.5-4.5 8.1-3.4 9.1 1.2 1.3 3.2.5 3.2-1.3 0-1.4.8-2.1 2.8-2.3 2.4-.3 2.7-.7 2.7-3.8 0-4.3-2.2-5-5.3-1.7zm513.2 2.4c-1.1 1.6-2.4 3.5-2.9 4.3-.8 1.3-.7 1.3.9.1 1.6-1.3 5.1-7.1 4.3-7.1-.2 0-1.2 1.2-2.3 2.7zm-527.9 7.2c-.3.5-.1 1.2.5 1.6.5.3 1-.1 1-.9 0-1.8-.6-2.1-1.5-.7zM675 580c-.6 1.1-.8 2-.6 2 .3 0 1-.9 1.6-2 .6-1.1.8-2 .6-2-.3 0-1 .9-1.6 2zm-587.7 6.7c-6.6 7.5-7.8 9.3-6.5 9.3.5 0 3.7-3.6 7.1-8 3.4-4.4 6-8 5.7-8-.2 0-3.1 3-6.3 6.7zm557.3-5.5c-.8 2.6-1.7 7.3-1.4 6.8.3-.3 1.4-2.2 2.6-4.3 1.7-3 1.8-3.7.6-3.7-.8 0-1.6.6-1.8 1.2zm-521.1 5.7c-.7 1.3 2.4 4.3 3.6 3.5.6-.4.3-1.4-.7-2.5-2-2.2-2.1-2.2-2.9-1zm539.4 3.7c-1.5 1.8-5.2 15.5-4.4 16.3 1.1 1.1 2.4-1.7 4.4-9.3 1.2-4.4 1.9-8.1 1.7-8.3-.2-.2-.9.4-1.7 1.3zM95 600.2l-2.3 3.3 2.8-2.7c1.6-1.5 2.6-3 2.3-3.3-.3-.4-1.6.9-2.8 2.7zm15 10l-2.3 3.3 2.8-2.7c1.6-1.5 2.6-3 2.3-3.3-.3-.4-1.6.9-2.8 2.7zm555 7.8c-.6 1.1-.8 2-.6 2 .3 0 1-.9 1.6-2 .6-1.1.8-2 .6-2-.3 0-1 .9-1.6 2z"/></svg>