<?xml version="1.0" standalone="no"?>
<!DOCTYPE svg PUBLIC "-//W3C//DTD SVG 20010904//EN"
 "http://www.w3.org/TR/2001/REC-SVG-20010904/DTD/svg10.dtd">
<svg version="1.0" xmlns="http://www.w3.org/2000/svg"
 width="960.000000pt" height="960.000000pt" viewBox="0 0 960.000000 960.000000"
 preserveAspectRatio="xMidYMid meet">
<metadata>
Created by potrace 1.11, written by Peter Selinger 2001-2013
</metadata>
<g transform="translate(0.000000,960.000000) scale(0.100000,-0.100000)"
fill="#000000" stroke="none">
<path d="M0 4800 l0 -4800 4800 0 4800 0 0 4800 0 4800 -4800 0 -4800 0 0
-4800z m3284 2085 c18 -9 91 -73 162 -143 103 -101 140 -145 182 -216 89 -153
156 -348 204 -591 18 -94 22 -156 25 -427 4 -231 8 -318 16 -319 7 0 129 -6
272 -13 192 -10 263 -11 271 -2 14 13 323 612 386 746 78 167 259 504 286 533
24 26 32 28 79 25 73 -6 209 -75 271 -137 79 -79 135 -205 167 -375 31 -167
56 -418 62 -623 6 -203 7 -212 27 -218 21 -7 21 -8 -1 -12 -15 -3 -23 -12 -23
-24 0 -37 46 -22 112 38 137 122 463 350 773 540 371 227 901 515 1169 636 90
40 93 40 230 45 180 6 210 -2 239 -66 48 -106 14 -327 -98 -637 -56 -155 -134
-343 -181 -437 l-34 -67 525 -3 c412 -2 527 -6 537 -16 10 -10 -56 -12 -362
-11 -379 3 -717 -7 -725 -21 -5 -7 323 -15 1095 -26 234 -3 433 -8 443 -10 37
-11 14 -24 -45 -26 l-63 -1 60 -6 c66 -7 -507 -34 -1060 -51 -181 -6 -371 -13
-422 -16 l-91 -6 -128 -196 c-266 -409 -966 -1528 -1034 -1653 -48 -88 -91
-141 -98 -121 -5 17 43 107 202 376 149 251 190 325 183 332 -5 5 -28 -32
-265 -426 -163 -272 -223 -368 -304 -484 -4 -6 -9 -8 -13 -5 -3 3 61 127 141
275 141 260 198 370 172 330 -7 -10 -55 -83 -107 -162 -52 -79 -99 -144 -105
-144 -6 0 -18 -15 -26 -32 -15 -33 -40 -49 -40 -27 0 7 11 27 24 44 14 18 42
79 64 136 21 57 51 135 66 174 l27 70 -31 -30 c-16 -16 -30 -25 -30 -21 0 9
36 60 73 104 15 18 27 38 27 44 0 24 -44 -31 -123 -154 -45 -70 -87 -128 -94
-128 -13 0 -28 74 -17 91 4 7 -18 -7 -48 -30 -40 -30 -60 -54 -72 -85 -9 -23
-30 -56 -47 -72 l-30 -29 27 60 c15 33 31 65 36 72 5 7 7 17 4 22 -11 17 18
71 108 205 47 71 89 133 92 138 16 26 -41 -18 -93 -72 -32 -33 -63 -60 -70
-60 -18 0 -16 7 9 43 19 28 19 30 2 16 -43 -36 -47 -30 -7 13 28 31 44 59 48
85 20 123 54 211 175 454 86 171 262 495 379 698 39 68 71 125 71 127 0 2 -18
4 -41 4 -35 0 -49 -7 -98 -52 -32 -29 -132 -121 -222 -203 -308 -282 -608
-525 -824 -668 -175 -115 -170 -116 -412 119 -129 126 -208 234 -239 327 -15
44 -18 83 -16 247 2 171 -4 238 -21 220 -3 -3 -112 -198 -242 -435 -255 -460
-342 -616 -396 -707 -19 -31 -56 -96 -84 -144 -68 -118 -120 -176 -154 -172
-42 5 -40 60 7 150 2 4 -9 5 -25 2 -43 -9 -109 13 -132 43 -26 32 -28 110 -5
154 8 17 14 32 12 33 -2 1 -16 6 -33 12 -65 21 -71 106 -21 281 54 186 153
457 217 592 l59 123 -183 -4 c-184 -5 -217 -10 -217 -33 0 -13 64 -25 140 -25
77 0 170 -12 164 -21 -3 -5 -72 -9 -154 -9 l-148 0 -6 -62 c-3 -35 -12 -211
-21 -393 -29 -596 -37 -660 -90 -723 -44 -53 -104 -50 -191 8 -36 24 -44 26
-65 14 -13 -7 -41 -15 -60 -19 -32 -6 -39 -3 -57 22 -25 35 -55 134 -89 288
-25 114 -26 138 -30 488 l-5 367 -388 0 -389 0 -107 -122 c-279 -319 -325
-366 -430 -438 -56 -39 -110 -80 -120 -91 -18 -20 -18 -20 10 -9 15 5 60 29
99 52 82 46 94 53 87 46 -3 -2 -65 -60 -138 -127 -73 -68 -192 -189 -265 -270
-167 -186 -388 -406 -592 -591 -235 -214 -265 -238 -265 -211 0 5 59 88 130
185 142 193 185 256 172 256 -5 0 -79 -65 -166 -145 -87 -80 -163 -145 -168
-145 -11 0 0 16 142 200 53 69 100 131 104 138 18 31 -23 4 -151 -98 -138
-111 -173 -128 -181 -87 -2 10 12 51 31 91 28 59 34 82 30 117 -4 37 0 51 26
90 17 25 48 63 68 84 21 22 46 57 56 80 10 23 49 70 95 112 42 40 73 72 68 73
-5 0 -81 -71 -170 -158 -228 -223 -326 -313 -337 -306 -18 11 49 102 201 274
86 96 153 178 165 200 4 8 -53 -45 -127 -118 -131 -129 -184 -167 -137 -99 68
96 181 224 429 482 121 126 560 658 560 678 0 2 -118 7 -262 11 -437 11 -864
36 -908 53 -12 4 -11 7 5 13 14 6 -1 9 -46 9 -82 1 -129 16 -129 42 0 13 11
21 40 29 27 7 38 15 34 25 -3 7 4 18 15 24 38 21 315 31 879 31 568 0 614 3
523 34 -59 20 -39 35 69 51 30 4 47 20 120 112 46 58 114 138 150 177 36 39
157 188 270 330 231 292 789 990 817 1022 40 45 75 53 127 29z m3746 -3210
c-40 -63 -74 -115 -76 -115 -2 0 8 26 22 58 14 31 37 84 51 117 14 33 35 71
46 83 l22 24 3 -26 c2 -18 -18 -60 -68 -141z m-6434 -282 c-20 -82 -266 -335
-266 -274 0 16 114 163 181 234 70 73 96 85 85 40z m274 0 c-26 -34 -191 -203
-197 -203 -3 0 -26 -17 -51 -37 -91 -74 54 93 168 193 88 77 117 94 80 47z
m5560 -116 c0 -8 -11 -24 -25 -37 -22 -21 -25 -22 -25 -5 0 19 27 55 42 55 4
0 8 -6 8 -13z m-140 -137 c0 -17 -127 -237 -153 -265 -19 -21 100 245 120 268
21 23 33 22 33 -3z"/>
<path d="M3187 5644 c-85 -89 -161 -179 -261 -307 -80 -103 -79 -107 30 -107
39 0 119 -3 177 -7 l107 -6 0 224 c0 190 2 228 16 247 36 52 0 29 -69 -44z"/>
<path d="M3850 4909 c0 -14 27 -17 207 -22 205 -7 222 -5 223 25 0 4 -97 9
-215 10 -191 3 -215 1 -215 -13z"/>
<path d="M1236 4322 c-43 -28 -71 -60 -119 -132 -107 -159 -108 -161 -58 -115
37 35 201 218 240 268 22 28 -3 20 -63 -21z"/>
<path d="M1637 4175 c-13 -9 -17 -20 -12 -34 8 -27 26 -27 53 2 17 18 19 26
10 35 -15 15 -29 15 -51 -3z"/>
<path d="M1490 4076 c0 -7 6 -19 14 -25 19 -16 32 5 16 24 -16 19 -30 19 -30
1z"/>
<path d="M1133 3942 c-168 -181 -276 -302 -270 -302 2 0 100 99 217 220 117
121 205 220 197 220 -9 0 -73 -62 -144 -138z"/>
<path d="M1452 3977 c-23 -25 -45 -81 -34 -91 12 -13 32 -5 32 13 0 14 8 21
28 23 24 3 27 7 27 38 0 43 -22 50 -53 17z"/>
<path d="M6584 3953 c-11 -16 -24 -35 -29 -43 -8 -13 -7 -13 9 -1 16 13 51 71
43 71 -2 0 -12 -12 -23 -27z"/>
<path d="M1305 3881 c-3 -5 -1 -12 5 -16 5 -3 10 1 10 9 0 18 -6 21 -15 7z"/>
<path d="M6750 3800 c-6 -11 -8 -20 -6 -20 3 0 10 9 16 20 6 11 8 20 6 20 -3
0 -10 -9 -16 -20z"/>
<path d="M873 3733 c-66 -75 -78 -93 -65 -93 5 0 37 36 71 80 34 44 60 80 57
80 -2 0 -31 -30 -63 -67z"/>
<path d="M6446 3788 c-8 -26 -17 -73 -14 -68 3 3 14 22 26 43 17 30 18 37 6
37 -8 0 -16 -6 -18 -12z"/>
<path d="M1235 3731 c-7 -13 24 -43 36 -35 6 4 3 14 -7 25 -20 22 -21 22 -29
10z"/>
<path d="M6629 3694 c-15 -18 -52 -155 -44 -163 11 -11 24 17 44 93 12 44 19
81 17 83 -2 2 -9 -4 -17 -13z"/>
<path d="M950 3598 l-23 -33 28 27 c16 15 26 30 23 33 -3 4 -16 -9 -28 -27z"/>
<path d="M1100 3498 l-23 -33 28 27 c16 15 26 30 23 33 -3 4 -16 -9 -28 -27z"/>
<path d="M6650 3420 c-6 -11 -8 -20 -6 -20 3 0 10 9 16 20 6 11 8 20 6 20 -3
0 -10 -9 -16 -20z"/>
</g>
</svg>
