<svg xmlns="http://www.w3.org/2000/svg">
    <symbol id="codepen" viewBox="0 0 30 30">
       <g id="Desktop-HD" transform="translate(-556.000000, -677.000000)" fill-rule="nonzero" fill="#888888"> <g id="social" transform="translate(250.000000, 677.000000)"> <path fill="currentColor" fill-rule="evenodd" clip-rule="evenodd" d="M335.979,10.205 C335.972,10.169 335.965,10.133 335.957,10.098 C335.951,10.077 335.943,10.056 335.936,10.035 C335.926,10.004 335.915,9.972 335.903,9.941 C335.894,9.92 335.884,9.899 335.875,9.878 C335.861,9.849 335.847,9.82 335.83,9.792 C335.819,9.771 335.807,9.752 335.794,9.732 C335.776,9.706 335.759,9.679 335.739,9.654 C335.725,9.634 335.711,9.617 335.695,9.598 C335.674,9.574 335.653,9.551 335.631,9.528 C335.614,9.511 335.598,9.494 335.58,9.478 C335.557,9.457 335.532,9.436 335.507,9.416 C335.487,9.401 335.469,9.386 335.448,9.372 C335.441,9.367 335.434,9.361 335.427,9.355 L321.715,0.216 C321.282,-0.072 320.718,-0.072 320.285,0.216 L306.574,9.356 C306.566,9.362 306.56,9.368 306.553,9.373 C306.533,9.387 306.514,9.402 306.494,9.417 C306.47,9.437 306.445,9.457 306.421,9.479 C306.404,9.494 306.387,9.512 306.37,9.528 C306.348,9.551 306.326,9.574 306.306,9.598 C306.291,9.617 306.276,9.634 306.262,9.654 C306.242,9.68 306.225,9.706 306.207,9.732 C306.194,9.752 306.182,9.771 306.17,9.792 C306.154,9.82 306.14,9.849 306.126,9.878 C306.116,9.899 306.106,9.919 306.097,9.941 C306.085,9.972 306.074,10.004 306.064,10.035 C306.057,10.056 306.05,10.077 306.044,10.098 C306.035,10.133 306.028,10.169 306.022,10.205 C306.019,10.224 306.014,10.242 306.011,10.261 C306.004,10.316 306,10.373 306,10.43 L306,19.571 C306,19.628 306.004,19.683 306.011,19.739 C306.014,19.759 306.018,19.776 306.022,19.795 C306.028,19.831 306.035,19.867 306.044,19.903 C306.05,19.924 306.057,19.945 306.064,19.966 C306.074,19.997 306.085,20.029 306.097,20.061 C306.106,20.082 306.116,20.102 306.126,20.123 C306.14,20.152 306.154,20.181 306.17,20.21 C306.181,20.23 306.194,20.249 306.207,20.269 C306.225,20.296 306.242,20.322 306.262,20.348 C306.276,20.367 306.291,20.385 306.306,20.403 C306.327,20.427 306.348,20.451 306.37,20.473 C306.387,20.49 306.404,20.507 306.421,20.523 C306.444,20.544 306.469,20.565 306.494,20.585 C306.514,20.601 306.533,20.615 306.553,20.63 C306.56,20.635 306.567,20.641 306.574,20.646 L320.285,29.787 C320.502,29.928 320.751,30 321,30 C321.249,30 321.499,29.928 321.715,29.783 L335.426,20.642 C335.434,20.637 335.441,20.631 335.447,20.626 C335.468,20.611 335.486,20.597 335.506,20.581 C335.531,20.561 335.556,20.541 335.579,20.519 C335.597,20.503 335.613,20.486 335.63,20.469 C335.652,20.447 335.674,20.423 335.694,20.399 C335.71,20.381 335.724,20.363 335.738,20.344 C335.758,20.318 335.775,20.292 335.793,20.265 C335.806,20.245 335.818,20.226 335.829,20.206 C335.846,20.177 335.86,20.148 335.874,20.119 C335.884,20.098 335.894,20.078 335.902,20.057 C335.915,20.026 335.925,19.994 335.935,19.962 C335.942,19.941 335.95,19.921 335.956,19.899 C335.965,19.863 335.972,19.827 335.978,19.791 C335.981,19.772 335.986,19.755 335.988,19.735 C335.996,19.683 336,19.627 336,19.57 L336,10.43 C336,10.373 335.996,10.317 335.988,10.261 C335.986,10.242 335.981,10.224 335.979,10.205 Z M321,18.05 L316.441,15 L321,11.95 L325.56,15 L321,18.05 Z M319.711,9.711 L314.122,13.449 L309.61,10.432 L319.711,3.698 L319.711,9.711 Z M311.803,15 L308.578,17.157 L308.578,12.843 L311.803,15 Z M314.122,16.551 L319.711,20.289 L319.711,26.302 L309.61,19.568 L314.122,16.551 Z M322.289,20.289 L327.878,16.551 L332.39,19.569 L322.289,26.302 L322.289,20.289 Z M330.196,15 L333.422,12.843 L333.422,17.157 L330.196,15 Z M327.878,13.449 L322.289,9.711 L322.289,3.697 L332.39,10.431 L327.878,13.449 Z"/> </g> </g> 
    </symbol>
    <symbol id="facebook" viewBox="0 0 30 30">
       <path fill="currentColor" fill-rule="evenodd" clip-rule="evenodd" d="M3,0 C1.338,0 -6.0111828e-18,1.338 0,3 L0,27 C0,28.662 1.338,30 3,30 L13.51125,30 L13.51125,16.561875 L10.854375,16.561875 L10.854375,11.810625 L13.51125,11.810625 L13.51125,8.7375 C13.51125,6.5369142 14.5573686,3.099375 19.15125,3.099375 L23.289375,3.114375 L23.289375,7.725 L20.28375,7.725 C19.7941752,7.725 19.09875,7.969977 19.09875,9.01875 L19.09875,11.810625 L23.356875,11.810625 L22.869375,16.561875 L19.09875,16.561875 L19.09875,30 L27,30 C28.662,30 30,28.662 30,27 L30,3 C30,1.338 28.662,-6.0111828e-18 27,0 L3,0 Z"/> 
    </symbol>
    <symbol id="github" viewBox="0 0 30 30">
       <!-- Generator: Sketch 46.2 (44496) - http://www.bohemiancoding.com/sketch --> <title>github</title> <desc>Created with Sketch.</desc>  <g id="Welcome" stroke="none" stroke-width="1" fill="none" fill-rule="evenodd"> <g id="Desktop-HD" transform="translate(-495.000000, -677.000000)" fill-rule="nonzero" fill="#888888"> <g id="social" transform="translate(250.000000, 677.000000)"> <path fill="currentColor" fill-rule="evenodd" clip-rule="evenodd" d="M260.000793,0 C251.716873,0 245,6.88429233 245,15.3825092 C245,22.1797434 249.299334,27.9389763 255.259471,29.9747981 C256.00951,30.1154306 256.284078,29.639959 256.284078,29.2314553 C256.284078,28.8631323 256.270685,27.8987956 256.263988,26.6130134 C252.091893,27.5438661 251.207917,24.5504044 251.207917,24.5504044 C250.524846,22.775757 249.540418,22.3002855 249.540418,22.3002855 C248.180972,21.3426456 249.64087,21.3627359 249.64087,21.3627359 C251.147646,21.4698845 251.937867,22.9498734 251.937867,22.9498734 C253.277223,25.300444 255.446981,24.624069 256.304169,24.2289588 C256.438104,23.237835 256.826518,22.5547632 257.255112,22.1730466 C253.926811,21.7846332 250.424394,20.4653671 250.424394,14.5721986 C250.424394,12.8913062 251.007014,11.5184658 251.964654,10.4469806 C251.810628,10.0585672 251.294975,8.49152012 252.111983,6.37533687 C252.111983,6.37533687 253.370978,5.96013636 256.237201,7.94908074 C257.435925,7.60754484 258.71501,7.44012528 259.994096,7.43342849 C261.266485,7.44012528 262.552267,7.60754484 263.750991,7.94908074 C266.617214,5.96013636 267.869512,6.37533687 267.869512,6.37533687 C268.686519,8.49152012 268.170867,10.0585672 268.016841,10.4469806 C268.974481,11.5251626 269.557101,12.898003 269.557101,14.5721986 C269.557101,20.4787607 266.047987,21.7779365 262.706293,22.159653 C263.242035,22.6351246 263.724204,23.5726741 263.724204,25.0057856 C263.724204,27.0616978 263.704113,28.7224998 263.704113,29.2247585 C263.704113,29.6332622 263.971985,30.1154306 264.735418,29.9614046 C270.708948,27.9322795 275.001585,22.1730466 275.001585,15.3825092 C275.001585,6.88429233 268.284712,0 260.000793,0 Z" id="github"/> </g> </g> </g> 
    </symbol>
    <symbol id="instagram" viewBox="0 0 30 30">
       <!-- Generator: Sketch 46.2 (44496) - http://www.bohemiancoding.com/sketch --> <title>instagram</title> <desc>Created with Sketch.</desc>  <g id="Welcome" stroke="none" stroke-width="1" fill="none" fill-rule="evenodd"> <g id="Desktop-HD" transform="translate(-310.000000, -677.000000)" fill="#888888"> <g id="social" transform="translate(250.000000, 677.000000)"> <path fill="currentColor" fill-rule="evenodd" clip-rule="evenodd" d="M74.9999343,0 C70.9261857,0 70.4153809,0.0171605155 68.815508,0.0902735163 C67.2188568,0.16318927 66.1284737,0.416717805 65.1744543,0.787476988 C64.1880205,1.17079425 63.3514947,1.68370299 62.5175988,2.51759884 C61.683703,3.3514947 61.1707942,4.18808626 60.7875427,5.17445428 C60.4165863,6.12860524 60.1630578,7.21898834 60.0902735,8.81557377 C60.0172263,10.4154467 60,10.9261857 60,14.9999343 C60,19.0738143 60.0172263,19.5845533 60.0902735,21.1844262 C60.1630578,22.7810117 60.4165863,23.8713948 60.7875427,24.8255457 C61.1707942,25.8119137 61.683703,26.6485053 62.5175988,27.4824012 C63.3514947,28.316297 64.1880205,28.8292058 65.1744543,29.212523 C66.1284737,29.5832822 67.2188568,29.8368107 68.815508,29.9097265 C70.4153809,29.982708 70.9261857,30 74.9999343,30 C79.0736828,30 79.5845533,29.982708 81.1844262,29.9097265 C82.7810117,29.8368107 83.8713948,29.5832822 84.82548,29.212523 C85.8119137,28.8292058 86.6483738,28.316297 87.4822697,27.4824012 C88.3161655,26.6485053 88.8290743,25.8119137 89.2123915,24.8255457 C89.5832822,23.8713948 89.8368107,22.7810117 89.9096607,21.1844262 C89.982708,19.5845533 89.9998685,19.0738143 89.9998685,14.9999343 C89.9998685,10.9261857 89.982708,10.4154467 89.9096607,8.81557377 C89.8368107,7.21898834 89.5832822,6.12860524 89.2123915,5.17445428 C88.8290743,4.18808626 88.3161655,3.3514947 87.4822697,2.51759884 C86.6483738,1.68370299 85.8119137,1.17079425 84.82548,0.787476988 C83.8713948,0.416717805 82.7810117,0.16318927 81.1844262,0.0902735163 C79.5845533,0.0171605155 79.0736828,0 74.9999343,0 M74.9999343,2.70268256 C79.0051065,2.70268256 79.4794205,2.71793635 81.0612124,2.79006312 C82.5236697,2.85679846 83.3179188,3.10125362 83.8464758,3.30658806 C84.5467038,3.57872359 85.0463969,3.90378715 85.5712063,4.42866222 C86.0962129,4.95360305 86.4212764,5.45323047 86.6932804,6.15339265 C86.8986149,6.68194968 87.14307,7.47626457 87.2098054,8.93865609 C87.2819321,10.520448 87.2972517,10.994762 87.2972517,14.9999343 C87.2972517,19.005238 87.2819321,19.479552 87.2098054,21.0612124 C87.14307,22.5237354 86.8986149,23.3180503 86.6932804,23.8466073 C86.4212764,24.5467038 86.0962129,25.0463969 85.5712063,25.5713378 C85.0463969,26.0962129 84.5467038,26.4212764 83.8464758,26.6933462 C83.3179188,26.8987464 82.5236697,27.1432015 81.0612124,27.2098054 C79.4796835,27.2820636 79.0054353,27.2972517 74.9999343,27.2972517 C70.9944332,27.2972517 70.520185,27.2820636 68.9386561,27.2098054 C67.4762646,27.1432015 66.6819497,26.8987464 66.1533927,26.6933462 C65.4532305,26.4212764 64.9535373,26.0962129 64.4286622,25.5713378 C63.9038529,25.0463969 63.5787893,24.5467038 63.3066538,23.8466073 C63.1012536,23.3180503 62.8568642,22.5237354 62.7900631,21.0612124 C62.7180021,19.479552 62.7026826,19.005238 62.7026826,14.9999343 C62.7026826,10.994762 62.7180021,10.520448 62.7900631,8.93865609 C62.8568642,7.47626457 63.1012536,6.68194968 63.3066538,6.15339265 C63.5787893,5.45323047 63.9038529,4.95360305 64.4286622,4.42866222 C64.9535373,3.90378715 65.4532305,3.57872359 66.1533927,3.30658806 C66.6819497,3.10125362 67.4762646,2.85679846 68.9386561,2.79006312 C70.520448,2.71793635 70.994762,2.70268256 74.9999343,2.70268256 Z M74.9999343,19.9999562 C77.7613965,19.9999562 79.9999562,17.7613965 79.9999562,14.9999343 C79.9999562,12.2385377 77.7613965,9.99997808 74.9999343,9.99997808 C72.2385377,9.99997808 69.9999123,12.2385377 69.9999123,14.9999343 C69.9999123,17.7613965 72.2385377,19.9999562 74.9999343,19.9999562 Z M74.9999343,7.29729552 C79.2539669,7.29729552 82.702573,10.7459674 82.702573,14.9999343 C82.702573,19.2540984 79.2539669,22.7026387 74.9999343,22.7026387 C70.7459016,22.7026387 67.2972955,19.2540984 67.2972955,14.9999343 C67.2972955,10.7459674 70.7459016,7.29729552 74.9999343,7.29729552 Z M84.206965,6.69292978 C84.206965,7.52130762 83.5354006,8.19292978 82.7069716,8.19292978 C81.8785974,8.19292978 81.2069782,7.52130762 81.2069782,6.69292978 C81.2069782,5.86449715 81.8785974,5.19292978 82.7069716,5.19292978 C83.5354006,5.19292978 84.206965,5.86449715 84.206965,6.69292978 Z" id="instagram"/> </g> </g> </g> 
    </symbol>
    <symbol id="linkedin" viewBox="0 0 30 30">
       <!-- Generator: Sketch 46.2 (44496) - http://www.bohemiancoding.com/sketch --> <title>linkedin</title> <desc>Created with Sketch.</desc>  <g id="Welcome" stroke="none" stroke-width="1" fill="none" fill-rule="evenodd"> <g id="Desktop-HD" transform="translate(-435.000000, -677.000000)" fill-rule="nonzero" fill="#888888"> <g id="social" transform="translate(250.000000, 677.000000)"> <path fill="currentColor" fill-rule="evenodd" clip-rule="evenodd" d="M213.777726,0 L186.222212,0 C185.549996,0 185,0.54999562 185,1.22221249 L185,28.7777875 C185,29.4500044 185.549996,30 186.222212,30 L213.777726,30 C214.449943,30 214.999939,29.4500044 214.999939,28.7777875 L214.999939,1.22221249 C214.999939,0.54999562 214.449943,0 213.777726,0 Z M194.663851,24.4766384 L190.499895,24.4766384 L190.499895,11.0533842 L194.66379,11.0533842 L194.66379,24.4766384 L194.663851,24.4766384 Z M192.615545,9.56723493 C191.300628,9.56723493 190.451434,8.6358479 190.451434,7.48525706 C190.451434,6.30734977 191.328005,5.40334031 192.670361,5.40334031 C194.012717,5.40334031 194.834533,6.30734977 194.86191,7.48525706 C194.86191,8.63578679 194.012656,9.56723493 192.615545,9.56723493 Z M210.105345,24.4781662 L205.94145,24.4781662 L205.94145,17.3050011 C205.94145,15.5791759 205.338777,14.4012075 203.832094,14.4012075 C202.681504,14.4012075 201.996698,15.1956457 201.6953,15.9626451 C201.585729,16.236604 201.558351,16.6201343 201.558351,17.0036035 L201.558351,24.4760884 L197.394457,24.4760884 L197.394457,15.6064924 C197.394457,13.9354224 197.339702,12.2587302 197.284886,11.0533842 L200.900923,11.0533842 L201.398242,13.1958616 L201.541546,13.1958616 C202.089403,12.3192297 203.065095,11.0316899 205.311338,11.0316899 C208.050744,11.0316899 210.105283,12.8670864 210.105283,16.8118384 L210.105283,24.4781662 L210.105345,24.4781662 Z" id="linkedin"/> </g> </g> </g> 
    </symbol>
    <symbol id="twitter" viewBox="0 0 37 30">
       <!-- Generator: Sketch 46.2 (44496) - http://www.bohemiancoding.com/sketch --> <title>twitter</title> <desc>Created with Sketch.</desc>  <g id="Welcome" stroke="none" stroke-width="1" fill="none" fill-rule="evenodd"> <g id="Desktop-HD" transform="translate(-370.000000, -677.000000)" fill-rule="nonzero" fill="#888888"> <g id="social" transform="translate(250.000000, 677.000000)"> <path fill="currentColor" fill-rule="evenodd" clip-rule="evenodd" d="M156.915872,3.55123145 C155.558775,4.1544687 154.098266,4.56137283 152.565819,4.74346805 C154.130489,3.80676425 155.330219,2.32302543 155.895988,0.553029925 C154.432482,1.42154169 152.812359,2.05175601 151.086576,2.39196683 C149.7055,0.920217815 147.736924,0 145.558525,0 C141.37633,0 137.985462,3.39086776 137.985462,7.57381226 C137.985462,8.16655843 138.052156,8.74431733 138.181795,9.29959534 C131.887146,8.98336414 126.30589,5.96867662 122.570315,1.38632163 C121.918369,2.50437128 121.545187,3.80526552 121.545187,5.1945846 C121.545187,7.82185143 122.88205,10.1403807 124.914323,11.4982265 C123.673378,11.4585103 122.505121,11.1175501 121.483739,10.5502823 C121.482989,10.5817555 121.482989,10.6139781 121.482989,10.6462007 C121.482989,14.3150822 124.09377,17.3754808 127.558825,18.0723885 C126.923365,18.244742 126.254184,18.337663 125.563271,18.337663 C125.074687,18.337663 124.60034,18.2904531 124.137983,18.2012789 C125.102413,21.2099715 127.899036,23.4003597 131.212719,23.4610581 C128.620672,25.4925813 125.355698,26.703552 121.806714,26.703552 C121.195983,26.703552 120.592746,26.6675826 120,26.5971424 C123.35265,28.747065 127.333267,30 131.609882,30 C145.54129,30 153.158565,18.4598092 153.158565,8.45131638 C153.158565,8.12309537 153.151821,7.79562372 153.137583,7.47040016 C154.616826,6.40480591 155.901234,5.07019034 156.915872,3.55123145 Z" id="twitter"/> </g> </g> </g> 
    </symbol>
    <symbol id="youtube" viewBox="0 0 40 30">
       <!-- Generator: Sketch 46.2 (44496) - http://www.bohemiancoding.com/sketch --> <title>youtube</title> <desc>Created with Sketch.</desc>  <g id="Welcome" stroke="none" stroke-width="1" fill="none" fill-rule="evenodd"> <g id="Desktop-HD" transform="translate(-616.000000, -677.000000)" fill-rule="nonzero" fill="#888888"> <g id="social" transform="translate(250.000000, 677.000000)"> <path fill="currentColor" fill-rule="evenodd" clip-rule="evenodd" d="M405.732653,6.62463157 C405.732653,3.10920208 403.146859,0.281234359 399.951724,0.281234359 C395.62384,0.0781206553 391.210023,0 386.702461,0 C386.468099,0 386.233737,0 385.999375,0 C385.765013,0 385.530652,0 385.29629,0 C380.79654,0 376.374911,0.0781206553 372.047026,0.281234359 C368.859704,0.281234359 366.27391,3.12482621 366.27391,6.6402557 C366.078608,9.42135103 365.992676,12.2024464 366.000488,14.9835417 C365.992676,17.764637 366.078608,20.5457323 366.266098,23.3346397 C366.266098,26.8500692 368.851892,29.7014731 372.039214,29.7014731 C376.585836,29.9123989 381.24964,30.0061437 385.991563,29.9983316 C390.741299,30.0139558 395.389478,29.920211 399.943912,29.7014731 C403.139047,29.7014731 405.724841,26.8500692 405.724841,23.3346397 C405.91233,20.5457323 405.998263,17.764637 405.990451,14.9757296 C406.006075,12.1946343 405.920143,9.41353896 405.732653,6.62463157 Z M382.171463,22.647178 L382.171463,7.29646921 L393.498958,14.9679176 L382.171463,22.647178 Z" id="youtube"/> </g> </g> </g> 
    </symbol></svg>